<svg xmlns="http://www.w3.org/2000/svg" xmlns:xlink="http://www.w3.org/1999/xlink" width="2200.022" height="3332.542" viewBox="0 0 2200.022 3332.542">
  <defs>
    <linearGradient id="linear-gradient" x1="0.5" y1="1" x2="0.5" gradientUnits="objectBoundingBox">
      <stop offset="0" stop-color="gray" stop-opacity="0.251"/>
      <stop offset="0.54" stop-color="gray" stop-opacity="0.122"/>
      <stop offset="1" stop-color="gray" stop-opacity="0.102"/>
    </linearGradient>
    <linearGradient id="linear-gradient-2" x1="0.5" y1="1" x2="0.5" y2="0" xlink:href="#linear-gradient"/>
    <linearGradient id="linear-gradient-3" x1="0.5" y1="1" x2="0.5" y2="-0.001" xlink:href="#linear-gradient"/>
    <linearGradient id="linear-gradient-4" x1="0.5" y1="0.999" x2="0.5" y2="0" xlink:href="#linear-gradient"/>
    <linearGradient id="linear-gradient-5" x1="0.5" y1="1" x2="0.5" y2="0" xlink:href="#linear-gradient"/>
    <linearGradient id="linear-gradient-6" x1="0.5" y1="1" x2="0.5" y2="0" xlink:href="#linear-gradient"/>
  </defs>
  <g id="Group_104" data-name="Group 104" transform="translate(-8913.39 5834.099)">
    <path id="Path_108" data-name="Path 108" d="M1072.51,740.534H980.254a31.512,31.512,0,0,0-25.72,13.419c-70.091,9.106-214.307,23.164-228.925-13.419l-6.709,5.032a73.716,73.716,0,0,0-4.912-13.379c-9.266-19.33-24.6-31.271-34.267-26.639s-10.024,23.963-.759,43.373a69.1,69.1,0,0,0,11.981,17.653l-3.994,3.075S834.44,831.752,948.9,824V1058.32a31.592,31.592,0,0,0,31.511,31.511h92.256a31.591,31.591,0,0,0,31.511-31.511V772a31.591,31.591,0,0,0-31.671-31.471Z" transform="translate(9074.084 -3864.603)" fill="url(#linear-gradient)"/>
    <rect id="Rectangle_59" data-name="Rectangle 59" width="148.969" height="81.199" rx="8" transform="translate(10020.391 -3117.76)" fill="#53ad9b"/>
    <rect id="Rectangle_57" data-name="Rectangle 57" width="125.884" height="86.28" rx="8" transform="translate(9739.228 -3138.927)" fill="#605b38"/>
    <path id="Rectangle_166" data-name="Rectangle 166" d="M50,0H587.37a50,50,0,0,1,50,50V405.824a145,145,0,0,1-145,145H145a145,145,0,0,1-145-145V50A50,50,0,0,1,50,0Z" transform="translate(9682 -3052.381)" fill="#6c63ff"/>
    <path id="Path_103" data-name="Path 103" d="M2663.7,1164.725c0,623.95-521.23,1129.725-1076.208,1129.725S463.68,1788.675,463.68,1164.725,1032.516,35,1587.494,35,2663.7,540.814,2663.7,1164.725Z" transform="translate(8449.71 -5869.099)" fill="url(#linear-gradient-2)"/>
    <path id="Path_104" data-name="Path 104" d="M2573.562,1125.087c0,594.716-496.828,1076.847-1025.846,1076.847S476.58,1719.843,476.58,1125.087,1018.738,48.24,1547.756,48.24,2573.562,530.531,2573.562,1125.087Z" transform="translate(8488.33 -5829.461)" fill="#6c63ff"/>
    <path id="Path_105" data-name="Path 105" d="M818.885,738.474c0-37.582-33.827-67.895-75.562-67.895s-75.562,30.473-75.562,67.895c0,31.671,23.963,58.23,56.672,65.818V857.53h37.781V804.292C794.8,796.7,818.885,770.185,818.885,738.474Z" transform="translate(9060.685 -3966.303)" fill="url(#linear-gradient-3)"/>
    <path id="Path_106" data-name="Path 106" d="M723.39,764.365l-76.521-76.521-1.518,1.518V689c-7.988-16.934-21.567-27.4-30.033-23.364s-8.786,21.087-.679,38.021A64.817,64.817,0,0,0,620.829,714l-7.988,7.988s195.7,195.7,272.137,187.109L899.4,855.743S833.978,857.9,723.39,764.365Z" transform="translate(8884.042 -3983.686)" fill="url(#linear-gradient-4)"/>
    <circle id="Ellipse_26" data-name="Ellipse 26" cx="62.942" cy="62.942" r="62.942" transform="translate(9739.228 -3288.454)" fill="#f8c198"/>
    <rect id="Rectangle_56" data-name="Rectangle 56" width="31.471" height="62.942" transform="translate(9786.434 -3178.266)" fill="#f8c198"/>
    <path id="Path_107" data-name="Path 107" d="M878.468,827.639S817.922,829.8,715.6,743.21l-70.81-70.81L613.32,703.871s181,181,251.609,173.131Z" transform="translate(8897.702 -3960.854)" fill="#605b38"/>
    <ellipse id="Ellipse_27" data-name="Ellipse 27" cx="15.736" cy="31.471" rx="15.736" ry="31.471" transform="matrix(0.902, -0.431, 0.431, 0.902, 9498.993, -3302.203)" fill="#f8c198"/>
    <circle id="Ellipse_28" data-name="Ellipse 28" cx="82.392" cy="82.392" r="82.392" transform="translate(10012.523 -3302.592)" fill="url(#linear-gradient-5)"/>
    <circle id="Ellipse_29" data-name="Ellipse 29" cx="74.484" cy="74.484" r="74.484" transform="translate(10020.431 -3294.685)" fill="#f8c198"/>
    <rect id="Rectangle_58" data-name="Rectangle 58" width="37.262" height="74.484" transform="translate(10076.264 -3164.327)" fill="#f8c198"/>
    <path id="Path_109" data-name="Path 109" d="M971.214,722.8s-237.431,38.9-256.042-7.668L677.91,743.087s176.925,74.484,288.632,46.568S971.214,722.8,971.214,722.8Z" transform="translate(9091.071 -3832.929)" fill="#53ad9b"/>
    <ellipse id="Ellipse_30" data-name="Ellipse 30" cx="18.611" cy="37.262" rx="18.611" ry="37.262" transform="matrix(0.902, -0.431, 0.431, 0.902, 9745.453, -3143.391)" fill="#f8c198"/>
    <path id="Path_110" data-name="Path 110" d="M741.329,687.768a9.425,9.425,0,0,1,9.346,5.471c7.668-16.774,25.8-27.038,43.932-29.394s36.783,2.037,54.236,7.988c22.325,7.628,44.171,18.172,60.985,34.706s27.957,39.938,26,63.382c-1.518,17.293-9.865,33.148-18.092,48.4-5.072,9.465-10.584,19.29-19.649,25-18.931,11.981-45.769-.679-55.913-20.608-3.355-6.59-5.431-13.779-9.146-19.969-11.223-19.33-34.467-27.238-54.476-37.262C743.565,747.715,740.81,723.273,741.329,687.768Z" transform="translate(9280.779 -3988.404)" fill="url(#linear-gradient-6)"/>
    <line id="Line_1" data-name="Line 1" y1="503.338" x2="26.599" transform="translate(10313.654 -3555.719)" fill="none" stroke="#ad7676" stroke-miterlimit="10" stroke-width="2"/>
    <line id="Line_2" data-name="Line 2" x1="35.984" y1="503.338" transform="translate(9663.904 -3555.719)" fill="none" stroke="#ad7676" stroke-miterlimit="10" stroke-width="2"/>
    <path id="Path_111" data-name="Path 111" d="M752.2,744.294a74.445,74.445,0,0,1,68.813-74.085c-1.877,0-3.754-.28-5.671-.28a74.484,74.484,0,1,0,0,148.969,38.308,38.308,0,0,0,5.671-.28A74.444,74.444,0,0,1,752.2,744.294Z" transform="translate(9279.53 -3968.249)" fill="#fff" opacity="0.2"/>
    <path id="Path_112" data-name="Path 112" d="M681.193,742.494a74.444,74.444,0,0,1,68.893-74.2c-1.877,0-3.754-.28-5.671-.28a74.484,74.484,0,0,0,0,148.969,38.24,38.24,0,0,0,5.671-.28,74.444,74.444,0,0,1-68.893-74.2Z" transform="translate(9067.181 -3973.997)" fill="#fff" opacity="0.2"/>
    <path id="Path_113" data-name="Path 113" d="M719.3,817.91a75.373,75.373,0,0,1,11.262,9.186c13.379,16.654-11.981,42.454-2.476,61.624,4.193,8.467,14.178,12.78,18.651,21.087,8.507,15.776-5.751,38.86,6.59,51.919,3.315,3.475,7.988,5.511,10.584,9.585,4.992,7.988-2,18.611-.879,27.957,1.4,11.981,14.5,18.371,25.8,22.6,9.625,3.594,22.246,6.47,28.8-1.478,3.155-3.994,3.754-9.226,6.709-13.26,5.511-7.548,16.614-7.588,24.722-12.221,12.581-7.189,15.656-23.963,15.656-38.38s-1.437-30.153,6.47-42.334c8.946-13.819,27.517-18.97,36.463-32.789,13.539-21.007-1.4-50.362,8.267-73.406,3.355-7.988,9.505-14.737,11.5-23.124,3.315-13.858-5.551-27.957-15.975-37.262S888,731,879.171,719.662c-6.19-7.988-10.224-17.373-17.533-24.2-17.732-16.534-45.929-10.623-69.612-15.975-21.926-4.753-42.135-19.769-64.46-17.253-19.53,2.2-34.786,17.213-48.4,31.391a25.123,25.123,0,0,0-7.588,11.662c-3.994,19.29,14.737,39.139,22.964,53.277C705.041,777.492,701.806,803.252,719.3,817.91Z" transform="translate(9070.45 -3992.141)" fill="#fccc63"/>
    <g id="Group_13" data-name="Group 13" transform="translate(9741.284 -3329.673)" opacity="0.2">
      <path id="Path_114" data-name="Path 114" d="M679.063,708.849c13.619-14.178,28.875-29.195,48.4-31.391,22.285-2.516,42.534,12.5,64.46,17.253,23.683,5.152,51.919-.759,69.612,15.975,7.309,6.829,11.343,16.375,17.533,24.2,8.826,11.143,21.686,18.292,32.27,27.957a51.521,51.521,0,0,1,15.775,23.484,5.531,5.531,0,0,1,.4-1.318c3.315-13.858-5.552-27.957-16.175-37.262s-23.444-16.614-32.27-27.957c-6.19-7.988-10.224-17.373-17.533-24.2-17.732-16.534-45.928-10.623-69.612-15.975-21.926-4.753-42.134-19.77-64.46-17.253-19.53,2.2-34.786,17.213-48.4,31.391a25.117,25.117,0,0,0-7.588,11.662,30.269,30.269,0,0,0,.519,13.259A29.349,29.349,0,0,1,679.063,708.849Z" transform="translate(-670.975 -662.079)" fill="#fff"/>
      <path id="Path_115" data-name="Path 115" d="M695.453,743.43a37.107,37.107,0,0,0-1.358,11.981,17.253,17.253,0,0,0,1.078,4.314C696.451,754.054,697.849,748.342,695.453,743.43Z" transform="translate(-601.898 -418.532)" fill="#fff"/>
      <path id="Path_116" data-name="Path 116" d="M691.28,729.59a73.024,73.024,0,0,0-.479,19.969,74.815,74.815,0,0,0,.479-19.969Z" transform="translate(-613.021 -459.966)" fill="#fff"/>
      <path id="Path_117" data-name="Path 117" d="M732.336,731.88a185.744,185.744,0,0,0-.679-26.04,184.676,184.676,0,0,0,.679,26.04Z" transform="translate(-489.852 -531.069)" fill="#fff"/>
      <path id="Path_118" data-name="Path 118" d="M719.48,741.64v-6.43C719.52,737.367,719.48,739.523,719.48,741.64Z" transform="translate(-525.761 -443.141)" fill="#fff"/>
      <path id="Path_119" data-name="Path 119" d="M692.329,708.42c-2.875,12.581-10.184,26.4-6.59,38.141C688.535,733.421,696.2,719.563,692.329,708.42Z" transform="translate(-629.686 -523.345)" fill="#fff"/>
    </g>
    <path id="Path_120" data-name="Path 120" d="M742.741,687.7a8.866,8.866,0,0,1,8.786,5.152c7.229-15.975,24.282-25.48,41.536-27.717s34.666,1.917,51.121,7.548c21.047,7.189,41.615,17.133,57.471,32.709s26.439,37.582,24.482,59.907c-1.438,16.295-9.306,31.231-17.053,45.609-4.793,8.906-9.985,18.172-18.531,23.563-17.852,11.222-43.133-.639-52.758-19.41-3.155-6.19-5.112-12.98-8.626-18.97-10.583-18.212-32.51-25.64-51.32-35.105C744.817,744.249,742.222,721.205,742.741,687.7Z" transform="translate(9284.998 -3984.458)" fill="#263238"/>
    <path id="Path_121" data-name="Path 121" d="M742.722,695.256a8.866,8.866,0,0,1,8.786,5.152c7.229-15.976,24.283-25.481,41.536-27.717s34.666,1.917,51.121,7.548c21.047,7.189,41.615,17.133,57.471,32.709A79.876,79.876,0,0,1,926.2,763.509c1.318-21.606-9.106-42.893-24.562-58.11s-36.423-25.521-57.471-32.709c-16.455-5.631-33.907-9.785-51.121-7.548s-34.307,11.981-41.536,27.717a8.866,8.866,0,0,0-8.786-5.152v9.425A14.766,14.766,0,0,1,742.722,695.256Z" transform="translate(9285.017 -3984.429)" fill="#fff" opacity="0.2"/>
    <rect id="Rectangle_62" data-name="Rectangle 62" width="238.03" height="83.111" transform="translate(9871.741 -3589.746)" fill="#6c63ff"/>
    <g id="Group_14" data-name="Group 14" transform="translate(9998.265 -5784.976)" opacity="0.2">
      <path id="Path_122" data-name="Path 122" d="M773.141,47.3c-12.62,0-25.2.359-37.821.919,514.64,22.206,988.1,495.231,988.1,1075.928s-473.5,1053.723-988.1,1075.928c12.62.559,25.241.919,37.821.919,528.978,0,1025.846-482.131,1025.846-1076.847S1302.119,47.3,773.141,47.3Z" transform="translate(-735.32 -47.3)"/>
    </g>
    <g id="Group_15" data-name="Group 15" transform="translate(8980.007 -5781.222)" opacity="0.2">
      <path id="Path_123" data-name="Path 123" d="M525.69,1125.087c0-586.209,526.782-1063.029,1048.491-1076.528-7.548,0-15.1-.32-22.645-.32C1022.558,48.24,480.36,530.531,480.36,1125.087s542.2,1076.847,1071.176,1076.847c7.548,0,15.1,0,22.645-.32C1052.511,2187.956,525.69,1711.336,525.69,1125.087Z" transform="translate(-480.36 -48.24)" fill="#fff"/>
    </g>
    <rect id="Rectangle_63" data-name="Rectangle 63" width="683.898" height="222.934" transform="translate(9660.15 -3778.653)" fill="#6c63ff"/>
    <path id="Path_124" data-name="Path 124" d="M921.289,118.116s-812.338,928.517,0,1996.9l268.263-.918S448.983,1231.466,1155.565,51.1L1023.331,81.253Z" transform="translate(8738.821 -5820.899)" fill="#fff" opacity="0.2"/>
    <path id="Path_125" data-name="Path 125" d="M1028.663,109.626s812.338,942.536,0,2011.036l-268.263-.919S1500.969,1229.606,794.387,49.2L926.542,75.6Z" transform="translate(9338.029 -5826.587)" fill="#fff" opacity="0.2"/>
  </g>
</svg>
